<?xml version="1.0" encoding="utf-8"?>
<!-- Generator: Adobe Illustrator 16.0.0, SVG Export Plug-In . SVG Version: 6.00 Build 0)  -->
<!DOCTYPE svg PUBLIC "-//W3C//DTD SVG 1.1//EN" "http://www.w3.org/Graphics/SVG/1.1/DTD/svg11.dtd">
<svg version="1.1" id="Layer_1" xmlns="http://www.w3.org/2000/svg" xmlns:xlink="http://www.w3.org/1999/xlink" x="0px" y="0px"
	 width="443.978px" height="566.971px" viewBox="0 0 443.978 566.971" enable-background="new 0 0 443.978 566.971"
	 xml:space="preserve">
<rect x="-0.421" opacity="0.93" fill="#54657E" width="443.978" height="566.971"/>
<path fill="#FFFFFF" d="M86.481,340.635c0-30.378,15.135-56.384,45.403-78.002c28.391-20.301,42.637-37.261,42.755-50.902v-64.04
	c0-12.525-5.385-18.799-16.139-18.799h-0.332c-10.875,0-16.3,6.273-16.3,18.799v47.072H86.481v-47.072
	c0-48.014,23.888-72.021,71.688-72.021c47.905,0,71.863,24.007,71.863,72.02v65.205c0,30.941-15.196,57.276-45.585,79.004
	c-28.373,20.293-42.576,37.872-42.576,52.731v20.122h88.162v49.241H86.481V340.635z"/>
<path fill="#FFFFFF" d="M335.281,162.902v199.932h18.131v53.055h-18.131v60.806h-55.387v-62.7h-95.473v-43.175l83.667-207.917
	H335.281L335.281,162.902z M238.922,364.554l40.973,0.199V263.196L238.922,364.554z"/>
<g>
	<path fill="#FFFFFF" d="M86.481,421.172h9.159l6.19,27.455v-27.455h8.672v55.739h-9.153l-5.903-26.694v26.694h-8.965V421.172z"/>
	<path fill="#FFFFFF" d="M138.65,465.753c0,8.017-4.012,12.037-12.024,12.049c-8.009,0-12.005-4.024-12.005-12.049v-44.58h9.276
		v44.58c0,2.093,0.91,3.138,2.729,3.138c1.837,0,2.757-1.045,2.757-3.138v-44.58h9.269L138.65,465.753L138.65,465.753z"/>
	<path fill="#FFFFFF" d="M160.606,458.118l8.584-36.945h9.162v55.739h-8.939v-25.634l-5.462,25.634h-6.515l-5.656-25.807v25.807
		h-9.023v-55.739h9.157L160.606,458.118z"/>
	<path fill="#FFFFFF" d="M200.584,458.118l8.571-36.945h9.17v55.739h-8.947v-25.634l-5.47,25.634h-6.502l-5.655-25.807v25.807
		h-9.018v-55.739h9.154L200.584,458.118z"/>
	<path fill="#FFFFFF" d="M222.699,421.172h21.834v8.879h-12.555v14.538h10.811v8.916h-10.812v14.528h12.557v8.878h-21.834V421.172
		L222.699,421.172z"/>
	<path fill="#FFFFFF" d="M247.533,421.172h12.162c7.467,0.021,11.195,4.037,11.195,12.058v8.207c0,5.053-2.027,8.323-6.061,9.806
		l8.924,25.67H263.65l-6.348-23.973h-0.51v23.973h-9.26V421.172z M256.793,430.052v14.538h1.113c1.012,0,1.66-0.052,1.955-0.173
		c1.172-0.454,1.744-1.45,1.744-2.98v-8.207c0-2.118-0.906-3.179-2.719-3.179L256.793,430.052L256.793,430.052z"/>
</g>
</svg>
